HIERARCHY
ROOT Hips
{
  OFFSET 0 0 0
  CHANNELS 6 Xposition Yposition Zposition Zrotation Xrotation Yrotation
  JOINT Spine
  {
    OFFSET 0 10 0
    CHANNELS 3 Zrotation Xrotation Yrotation
    JOINT Neck
    {
      OFFSET 0 30 0
      CHANNELS 3 Zrotation Xrotation Yrotation
      JOINT Head
      {
        OFFSET 0 8 0
        CHANNELS 3 Zrotation Xrotation Yrotation
        End Site
        {
          OFFSET 0 10 0
        }
      }
    }
    JOINT LeftArm
    {
      OFFSET 15 30 0
      CHANNELS 3 Zrotation Xrotation Yrotation
      JOINT LeftForeArm
      {
        OFFSET 25 0 0
        CHANNELS 3 Zrotation Xrotation Yrotation
        JOINT LeftHand
        {
          OFFSET 25 0 0
          CHANNELS 3 Zrotation Xrotation Yrotation
          End Site
          {
            OFFSET 10 0 0
          }
        }
      }
    }
    JOINT RightArm
    {
      OFFSET -15 30 0
      CHANNELS 3 Zrotation Xrotation Yrotation
      JOINT RightForeArm
      {
        OFFSET -25 0 0
        CHANNELS 3 Zrotation Xrotation Yrotation
        JOINT RightHand
        {
          OFFSET -25 0 0
          CHANNELS 3 Zrotation Xrotation Yrotation
          End Site
          {
            OFFSET -10 0 0
          }
        }
      }
    }
  }
  JOINT LeftUpLeg
  {
    OFFSET 10 -10 0
    CHANNELS 3 Zrotation Xrotation Yrotation
    JOINT LeftLeg
    {
      OFFSET 0 -35 0
      CHANNELS 3 Zrotation Xrotation Yrotation
      JOINT LeftToe
      {
        OFFSET 0 -40 0
        CHANNELS 3 Zrotation Xrotation Yrotation
        JOINT LeftToeEnd
        {
          OFFSET 0 0 0
          CHANNELS 3 Zrotation Xrotation Yrotation
          End Site
          {
            OFFSET 0 0 15
          }
        }
      }
    }
  }
  JOINT RightUpLeg
  {
    OFFSET -10 -10 0
    CHANNELS 3 Zrotation Xrotation Yrotation
    JOINT RightLeg
    {
      OFFSET 0 -35 0
      CHANNELS 3 Zrotation Xrotation Yrotation
      JOINT RightToe
      {
        OFFSET 0 -40 0
        CHANNELS 3 Zrotation Xrotation Yrotation
        JOINT RightToeEnd
        {
          OFFSET 0 0 0
          CHANNELS 3 Zrotation Xrotation Yrotation
          End Site
          {
            OFFSET 0 0 15
          }
        }
      }
    }
  }
}
MOTION
Frames:	17
Frame Time:	0.0333333
52.0713 88.0989 -0.123827 -3.66482 0.303665 -4.19539 6.9167 3.84264 -2.94732 -8.05694 -11.014 -6.02553 8.00974 5.43395 -9.9008 -93.1635 31.2195 6.49582 18.3736 -5.51731 -34.5032 0.603315 -25.7504 1.4841 85.7159 32.8951 -5.21805 -19.3015 -5.94396 36.3331 -0.343575 -16.5451 -0.6941 2.5247 -8.23004 -0.187949 -0.414287 27.0495 -0.963646 1.95113 -18.8116 14.519 -1.89576e-022 1.51661e-021 -0 5.90569 -6.41049 4.23343 0.00086068 19.2296 1.61528 -2.16065 -12.6453 -7.65865 -5.21334e-022 0 7.95139e-016 
52.1629 88.0026 -0.307679 -2.33227 0.565707 -3.74845 5.24338 4.90477 -2.90533 -7.77598 -10.9249 -5.02776 8.76519 3.9894 -7.89785 -92.0923 35.1306 5.68366 21.0803 -6.99967 -39.1436 0.510288 -27.3982 1.40211 85.5163 35.9037 -4.37247 -21.0849 -6.99387 39.4883 -0.355827 -17.7731 -0.731777 0.926424 -8.45178 -0.615798 -0.465461 26.3769 -0.919227 2.21294 -18.2776 14.7632 9.47879e-023 -1.89576e-022 -0 4.50981 -8.42076 4.20875 -0.0875465 22.2022 1.54283 -1.89793 -14.0084 -7.75798 4.7394e-023 -3.79152e-022 1.59028e-015 
52.1852 87.9645 -0.836106 -2.8724 1.94805 -3.49421 6.00274 5.8754 -2.52134 -7.57042 -11.2588 -3.9282 8.29898 1.84113 -6.05485 -90.3199 38.7276 3.67297 23.5591 -8.59856 -43.5465 0.399544 -29.1391 1.32689 83.9813 38.5702 -2.53417 -22.837 -8.11442 42.6455 -0.344484 -18.2112 -0.770004 1.76774 -11.2092 -0.440611 -0.521861 27.8033 -0.920899 2.05543 -18.3117 14.2043 4.54982e-021 0 -3.18055e-015 5.44037 -10.2509 5.06705 -0.0852272 22.0833 1.42988 -2.11986 -13.4895 -8.80709 -2.48481e-017 2.48481e-017 -0 
52.2416 87.9467 -1.27858 -3.43749 2.91141 -3.2742 6.76665 7.61377 -2.45377 -6.84207 -12.3562 -3.15113 6.60952 0.891942 -4.74889 -88.5955 42.0352 2.76965 26.1507 -10.6162 -48.4519 0.399106 -28.2843 1.22294 81.526 41.2973 -0.0961237 -23.8892 -8.82722 44.5933 -0.377558 -18.1015 -0.76533 2.56859 -13.3229 -0.250023 -0.538401 28.9871 -0.937185 1.92283 -18.3881 13.7141 -1.55301e-018 -2.48481e-017 -0 6.12527 -11.32 5.22277 -0.0578051 21.6324 1.3834 -2.14466 -13.1621 -9.64524 -1.2424e-017 4.96962e-017 -0 
52.3053 87.7921 -1.8007 -2.45392 4.82977 -3.1739 5.609 8.83325 -2.78205 -7.79528 -10.4637 -1.67006 9.68274 -5.55326 -1.42858 -85.6566 44.5673 2.29616 28.0415 -12.2913 -52.0986 0.424317 -26.9279 1.11784 77.9481 44.8382 3.00267 -24.074 -8.91176 44.8266 -0.41459 -18.5159 -0.738668 1.50743 -15.8804 -0.235946 -0.559543 29.0646 -0.949342 2.11011 -17.8186 13.9097 -0 0 1.59028e-015 5.33063 -15.2303 5.55095 -0.0747517 23.9753 1.19156 -1.83639 -13.3055 -9.80948 3.10601e-018 4.96962e-017 -0 
52.3672 87.7002 -2.38124 -2.78045 6.4566 -3.08296 5.98877 11.0449 -2.58923 -8.11959 -10.5619 -1.07983 10.3053 -9.39631 -0.216731 -82.6951 45.7833 1.48788 28.3356 -12.5966 -52.6261 0.515014 -25.4838 1.03259 74.0122 46.7989 5.44955 -23.3532 -8.36014 43.3871 -0.436134 -18.2878 -0.684636 2.05543 -19.0279 0.00168198 -0.569663 30.4036 -0.97277 2.02602 -17.6238 13.7077 9.47879e-022 4.54982e-021 1.59028e-015 5.96452 -17.6408 5.93901 -0.110353 24.4494 1.0481 -2.02252 -13.2703 -10.2587 0 4.96962e-017 -0 
52.4054 87.5135 -2.91852 -2.58218 8.44026 -2.73021 5.85721 13.1557 -2.39608 -9.51415 -10.5121 -0.673979 13.0306 -13.0893 1.2418 -79.847 45.9747 1.70631 27.4782 -11.8437 -50.9019 0.532313 -25.8211 1.02048 71.1009 48.3281 5.61729 -22.4464 -7.72246 41.602 -0.434826 -18.9594 -0.639478 1.97447 -22.4436 0.350019 -0.555466 31.4399 -1.0052 2.04541 -17.2764 13.2988 -2.58627e-034 -3.10601e-018 -4.77083e-015 5.99825 -20.9977 6.28694 -0.125614 25.8724 0.880795 -1.88622 -13.5381 -10.603 -2.75869e-033 1.98785e-016 7.95139e-016 
52.503 87.042 -3.58119 -2.63923 10.4377 -2.27767 6.21403 16.2753 -2.43103 -9.94436 -10.636 -0.331971 13.1878 -18.5275 2.35861 -78.6595 43.6515 3.39266 26.1767 -10.7031 -48.2354 0.498495 -27.9391 1.0115 69.0047 48.2936 4.42987 -21.1586 -6.88727 39.1746 -0.419766 -18.6448 -0.585106 2.35255 -26.6712 1.27935 -0.5343 34.0306 -1.02276 2.03229 -17.7326 11.9881 -0 -2.48481e-017 -0 6.40598 -25.0484 6.31761 -0.186197 28.3981 0.620178 -2.1031 -13.4008 -10.8283 -2.48481e-017 0 -7.95139e-016 
52.6047 86.3548 -4.16601 -1.94228 12.7457 -1.39165 5.79929 19.3739 -3.12673 -9.44922 -11.3312 -0.157105 12.199 -22.9863 3.24033 -78.3232 39.4446 7.0678 24.5159 -9.45497 -45.1105 0.460453 -30.8845 1.06066 69.5636 46.1842 0.75711 -19.7105 -6.10827 36.674 -0.406081 -19.1061 -0.532786 1.71054 -31.0587 2.42643 -0.444536 36.213 -1.03501 2.18866 -17.8307 10.5715 9.47879e-023 1.51661e-021 -4.77083e-015 5.66367 -30.4556 5.85746 -0.216983 33.0003 0.2854 -2.1701 -15.0276 -10.558 -6.21202e-018 1.2424e-017 7.95139e-016 
52.5589 85.098 -4.74761 -2.55448 15.672 -0.666128 6.58269 21.9722 -3.48959 -8.52002 -11.5246 0.119107 10.0769 -27.5565 3.33484 -78.5187 35.3788 12.1446 22.4786 -8.02986 -41.3064 0.459437 -31.7847 1.08577 71.659 43.0689 -4.93284 -18.5102 -5.50764 34.6292 -0.378455 -19.1863 -0.505502 3.017 -38.1795 3.89434 -0.340678 42.0675 -1.01284 2.09553 -19.5027 9.10988 0 0 -1.59028e-015 7.18426 -36.935 7.14644 -0.211333 38.0859 -0.101502 -2.17755 -16.3415 -10.8484 -9.78393e-017 -1.2424e-017 1.59028e-015 
52.5027 83.4479 -5.45697 -2.08513 18.2381 -0.553413 5.72707 25.841 -3.48639 -6.83945 -13.6418 0.0743374 7.45491 -29.7943 2.73837 -78.4365 31.3724 17.2893 20.2852 -6.63258 -37.2883 0.489493 -29.4788 1.07988 74.2422 38.7128 -10.5766 -17.1109 -4.83318 32.2487 -0.353951 -17.0566 -0.444829 3.20625 -45.0226 4.81205 -0.288278 47.7272 -0.96465 2.12503 -20.8871 8.30035 9.47879e-023 -7.58303e-022 -1.59028e-015 8.00681 -44.1686 8.87723 -0.0960357 44.6852 -0.5291 -1.62798 -18.2692 -10.6279 1.32005e-017 6.21202e-018 -7.95139e-016 
52.5106 81.2754 -5.9897 -2.14214 20.3038 -0.318562 5.72038 29.129 -3.44671 -5.32057 -13.051 0.53689 4.102 -33.3438 1.93032 -79.5784 26.9388 23.5662 18.1811 -5.42266 -33.4555 0.4773 -28.1899 1.07988 77.2087 34.6418 -17.7012 -16.1608 -4.38881 30.65 -0.338224 -17.6816 -0.426166 3.84636 -51.9893 5.54109 -0.348779 54.9181 -0.79335 2.3579 -23.1705 8.07403 9.47879e-023 0 -0 9.61953 -51.013 10.61 0.128007 52.0504 -0.968276 -1.14681 -20.8319 -10.3033 -1.89576e-022 0 -0 
52.664 78.5853 -6.36044 -3.22923 22.6151 0.258717 7.31333 32.105 -3.67649 -5.18059 -13.8992 0.6856 2.19029 -35.0295 1.17642 -82.4223 23.5644 30.5842 16.3695 -4.50055 -30.2358 0.523612 -28.3597 1.1142 80.2828 30.447 -24.7507 -14.9584 -3.87429 28.6892 -0.342695 -15.5511 -0.375894 5.26926 -59.6433 5.51621 -0.79459 63.1729 -0.348132 2.65772 -26.1412 8.54221 -0 0 1.59028e-015 12.6723 -58.0856 12.6849 0.594427 59.8271 -1.71019 -1.24377 -23.8556 -9.63691 -1.3977e-017 0 1.59028e-015 
52.6996 75.111 -6.81127 -2.1677 24.6361 0.480703 6.32389 34.6459 -4.0686 -4.56897 -12.0892 0.502526 0.415191 -39.9533 0.0661143 -85.767 20.8665 37.6858 14.9212 -3.8361 -27.6798 0.523184 -27.2491 1.16685 84.6048 27.6755 -32.3977 -14.4259 -3.6876 27.7729 -0.350429 -17.1719 -0.394545 3.15652 -67.3689 3.99316 -1.7531 71.6272 0.545202 3.23399 -28.8563 8.98986 -1.89576e-022 -1.51661e-021 1.59028e-015 14.2988 -66.6175 14.8915 1.90883 69.8029 -3.31733 -1.6472 -27.0854 -10.3465 -3.49426e-017 2.48481e-017 -1.59028e-015 
52.8025 71.3731 -7.03288 -0.490245 27.0071 0.458418 4.92371 35.8019 -4.74295 -4.23801 -11.2619 0.647729 -0.290932 -42.1866 0.513809 -89.9226 18.8786 43.9772 13.6623 -3.27358 -25.443 0.499713 -27.3702 1.20304 89.0624 24.9109 -38.6485 -13.5486 -3.34533 26.2856 -0.386898 -17.6819 -0.390901 -2.15858 -75.0545 -0.00440193 -4.40182 79.6326 3.02969 4.17457 -31.5274 10.0659 7.58303e-022 0 3.18055e-015 16.6719 -75.4699 18.8371 5.90015 79.6236 -7.86333 -2.109 -30.3299 -8.93751 7.76503e-017 4.96962e-017 -7.95139e-016 
52.9746 67.5363 -7.18769 -0.5345 28.0951 1.61568 6.30572 37.9577 -6.20609 -4.72885 -11.0195 0.458518 -1.14233 -44.1702 0.138983 -93.2772 15.4283 47.2375 13.3984 -3.17118 -24.9123 0.503792 -26.2633 1.25298 90.2967 19.7292 -40.974 -12.5212 -2.93586 24.4889 -0.397484 -16.1987 -0.431771 -11.2907 -81.3987 -8.96817 -24.7461 87.6528 23.0344 5.21241 -34.2603 11.7495 -1.13745e-021 6.06643e-021 -1.59028e-015 25.2392 -82.351 27.4415 47.8837 88.1765 -50.5751 -3.47546 -33.3326 -8.55577 -1.61513e-016 0 -7.95139e-016 
53.1905 63.8435 -7.10624 -0.167992 29.2178 2.81367 7.5482 39.2281 -7.9637 -5.10406 -10.8637 0.253979 -1.91156 -46.0102 0.0682861 -95.7157 11.9272 47.2656 14.2544 -3.50645 -26.3452 0.526319 -27.4637 1.32232 89.4007 13.442 -39.5998 -11.1857 -2.54822 22.2731 -0.489311 -14.655 -0.414087 -53.9755 -86.3468 -50.9236 -167.153 84.8854 165.333 6.08991 -36.1664 11.9112 -3.31758e-022 0 -0 81.2857 -87.738 84.1095 167.191 82.7661 -170.407 -4.58421 -35.9388 -9.09634 -2.42269e-016 4.96962e-017 -0 
